# xmcd
#
# Track frame offsets:
#	150
#	30439
#	48203
#	73328
#	94717
#	118230
#	142721
#	163827
#	186508
#	205113
#	238986
#
# Disc length: 3399 seconds
#
# Revision: 1
# Processed by: cddbd v1.5PL3 Copyright (c) Steve Scherf et al.
# Submitted via: EasyCDDAExtractor 6.5.7.1
#
DISCID=9d0d450b
DTITLE=Never the Bride - Licensed to Bitch
DYEAR=1991
DGENRE=Blues
TTITLE0=Wild about your Love
TTITLE1=Call it Love
TTITLE2=Cry Out
TTITLE3=Don't give away
TTITLE4=Rough and Ready
TTITLE5=The Answer
TTITLE6=Licence to Bitch
TTITLE7=Nowhere to run
TTITLE8=Who's who
TTITLE9=Alone
TTITLE10=Someone get me out of here
EXTD=
EXTT0=
EXTT1=
EXTT2=
EXTT3=
EXTT4=
EXTT5=
EXTT6=
EXTT7=
EXTT8=
EXTT9=
EXTT10=
PLAYORDER=
